<svg xmlns="http://www.w3.org/2000/svg" width="150" height="150" fill="none" viewBox="0 0 150 150"><path fill="#1572B6" d="M22.0477 133.738L10.2656 1.58447H139.734L127.941 133.718L74.9215 148.417L22.0477 133.738Z"/><path fill="#33A9DC" d="M75.0012 137.182L117.844 125.304L127.923 12.3892H75.0012V137.182Z"/><path fill="#fff" d="M75.0012 60.2684H96.4489L97.9301 43.6711H75.0012V27.4629H115.644L115.255 31.8117L111.271 76.4766H75.0012V60.2684Z"/><path fill="#EBEBEB" d="M75.0974 102.362L75.0259 102.383L56.9755 97.5095L55.8212 84.5825H39.5532L41.8231 110.032L75.0235 119.247L75.0974 119.225V102.362Z"/><path fill="#fff" d="M95.0707 75.791L93.1184 97.4965L75.041 102.376V119.239L108.268 110.031L108.512 107.292L111.332 75.791H95.0707Z"/><path fill="#EBEBEB" d="M75.0563 27.4629V43.6711H35.9063L35.5817 40.0289L34.8435 31.8117L34.4556 27.4629H75.0563ZM75.0013 60.2707V76.4789H57.1782L56.8536 72.8367L56.1142 64.6195L55.7274 60.2707H75.0013Z"/></svg>